<?xml version="1.0" encoding="UTF-8" standalone="no"?>
<!-- Created with Inkscape (http://www.inkscape.org/) -->

<svg
   width="242.45779mm"
   height="114.841mm"
   viewBox="0 0 242.45779 114.841"
   version="1.1"
   id="svg5"
   xml:space="preserve"
   xmlns:inkscape="http://www.inkscape.org/namespaces/inkscape"
   xmlns:sodipodi="http://sodipodi.sourceforge.net/DTD/sodipodi-0.dtd"
   xmlns="http://www.w3.org/2000/svg"
   xmlns:svg="http://www.w3.org/2000/svg"><sodipodi:namedview
     id="namedview7"
     pagecolor="#ffffff"
     bordercolor="#000000"
     borderopacity="0.25"
     inkscape:showpageshadow="2"
     inkscape:pageopacity="0.0"
     inkscape:pagecheckerboard="0"
     inkscape:deskcolor="#d1d1d1"
     inkscape:document-units="mm"
     showgrid="false" /><defs
     id="defs2" /><g
     inkscape:groupmode="layer"
     id="layer2"
     inkscape:label="hearth"
     transform="matrix(0.60358238,0,0,0.64194507,0.35694029,131.53174)"><ellipse
       style="fill:#ffffff;fill-opacity:1;stroke-width:0.207157"
       id="path14486"
       cx="65.427437"
       cy="-116.88641"
       rx="66.018806"
       ry="63.420017" /><path
       style="fill:#000000;fill-opacity:1;stroke-width:0.0451337"
       d="m 31.570965,-78.047995 32.294072,-8.014333 15.873356,-5.041277 16.359895,-9.888655 7.054832,-8.07898 3.34496,-7.30336 1.0947,-5.17055 -0.30407,-6.5278 -1.88535,-6.33392 -3.64905,-4.13642 -5.412752,-2.90843 -3.801094,-0.58169 -4.591718,0.12926 -3.957323,1.05528 -2.610962,1.33611 -3.344957,2.19748 -2.919235,2.77915 -2.128617,3.32854 -0.08362,0.13331 -0.07222,0.0202 -0.0494,-0.0565 -0.01901,-0.0606 -0.02279,-0.1535 -0.14444,-1.07452 -2.852916,-7.57516 -4.407957,-6.55817 -2.795288,-1.69097 -5.827101,-1.64525 -7.009719,0.15996 -6.020627,1.57671 -2.601768,1.07398 -3.805889,3.56471 -2.472755,6.07832 -0.860091,7.74641 1.354641,8.08917 4.235935,12.04234 1.032108,6.00976 0.430045,7.974915 -1.849195,7.197998 -1.612664,3.473312 -1.978202,3.039153 z"
       id="path372"
       sodipodi:nodetypes="cccccccccccccccccccccccccccccccccccccccccc" /></g><g
     inkscape:groupmode="layer"
     id="layer3"
     inkscape:label="text"
     transform="matrix(1.0593728,0,0,0.92740463,319.46796,-47.727609)"><path
       style="fill:#ffffff;fill-opacity:1;stroke-width:0.188756"
       d="m -483.12299,-194.59247 7.12587,25.54724 -12.47627,-11.79829 -6.4205,1.54194 -19.66277,1.73468 -16.72003,11.3718 4.61472,11.69304 15.8506,-3.01963 h 30.83175 l 11.90467,9.82986 12.97475,34.95061 -12.37283,26.341459 -49.82571,22.615106 -22.13733,4.690059 -11.97155,-16.254605 -9.0957,-30.967269 5.75169,-8.60916 67.68271,-13.23497 1.07009,-10.2796 -4.81537,-8.54491 -15.41588,-0.96371 -31.40252,7.07548 -11.06618,-26.71273 8.51245,-11.72089 14.56575,-9.72198 26.67236,-5.54244 z"
       id="path14610"
       transform="matrix(0.45694198,0,0,0.4756663,43.661954,144.02471)" /><path
       style="fill:#ffffff;fill-opacity:1;stroke-width:0.188756"
       d="m -475.20793,-193.20848 5.67496,26.53101 11.91744,3.08922 6.43163,25.07726 7.75579,51.426545 18.1599,-5.451576 -6.43163,-36.525569 -3.02665,-16.71817 -2.64832,-9.81284 16.26825,5.08814 0.18916,-12.17519 -5.02305,-10.13294 -9.35353,-10.94649 -20.99739,-8.35908 z"
       id="path14612"
       transform="matrix(0.45694198,0,0,0.4756663,43.661954,144.02471)" /><path
       style="fill:#ffffff;fill-opacity:1;stroke-width:0.188756"
       d="m -381.76012,-116.70468 1.135,10.53972 -26.19944,-10.72144 0.66208,6.81447 12.86326,4.90642 0.66208,8.268227 -14.09284,-5.815017 0.37834,6.723609 22.13237,10.267139 3.97248,20.170838 -35.94147,-24.077799 -3.68873,-46.883567 z"
       id="path14614"
       transform="matrix(0.45694198,0,0,0.4756663,43.661954,144.02471)" /><path
       style="fill:#ffffff;fill-opacity:1;stroke-width:0.188756"
       d="m -386.88245,-129.06007 11.50339,9.12314 0.13376,59.107658 7.89186,3.21237 0.93632,-27.369416 5.88545,40.989876 7.62434,10.665077 -6.68801,-50.755489 7.22305,-5.910767 1.47136,0.128496 3.34401,-42.788805 -5.08289,-12.72099 z"
       id="path14616"
       transform="matrix(0.45694198,0,0,0.4756663,43.661954,144.02471)" /><path
       style="fill:#ffffff;fill-opacity:1;stroke-width:0.188756"
       d="m -312.90383,-122.5197 -1.13499,11.44831 -18.91656,0.72688 1.51333,42.158866 24.02403,-8.540806 -2.83748,41.613707 -30.834,1.272031 -5.67497,-119.207818 15.13325,-6.54189 19.10573,-1.63548 10.59327,0.54516 10.40411,5.45158 -0.56749,21.26115 -13.61993,-6.72361 -14.94409,-1.81719 -10.21494,1.27203 -1.13499,19.8074 z"
       id="path14618"
       transform="matrix(0.45694198,0,0,0.4756663,43.661954,144.02471)" /><path
       style="fill:#ffffff;fill-opacity:1;stroke-width:0.188756"
       d="m -287.7448,-135.60348 -13.43075,72.505972 -2.64833,28.348199 7.7558,7.99565 5.86413,2.180628 9.26912,-6.90533 10.21494,-14.537539 13.61993,-28.893356 2.45915,-14.53754 -1.13499,-27.803044 -8.51245,-21.80631 -6.43164,-7.63221 -7.94495,0.18173 z"
       id="path14622"
       transform="matrix(0.45694198,0,0,0.4756663,43.661954,144.02471)" /><path
       style="fill:#ffffff;fill-opacity:1;stroke-width:0.188756"
       d="m -538.16535,-51.963128 16.98756,-4.497318 6.15298,49.2135444 7.89185,-1.4134434 -1.73889,-43.302783 18.32517,-12.07852 1.73888,2.312907 10.16579,109.991639 -22.73925,5.26829 -3.21025,-50.88398 -12.03843,2.1844161 -0.53504,51.0124769 -24.6119,9.894104 11.50339,-49.342041 z"
       id="path14624"
       transform="matrix(0.45694198,0,0,0.4756663,43.661954,144.02471)" /><path
       style="fill:#ffffff;fill-opacity:1;stroke-width:0.188756"
       d="m -484.09872,-63.279225 51.26388,-17.445047 3.59415,13.992382 -41.61644,13.44722 2.64832,36.707289 17.78157,-4.906419 5.10748,10.721434 -20.61906,6.5418903 3.59415,29.2567957 21.18655,-1.817188 1.51332,14.900974 -32.72565,6.360173 z"
       id="path14626"
       transform="matrix(0.45694198,0,0,0.4756663,43.661954,144.02471)" /><path
       style="fill:#ffffff;fill-opacity:1;stroke-width:0.188756"
       d="m -437.75314,-55.828738 12.1066,0.36344 27.61818,81.773655 -9.83661,3.634388 -10.97161,-40.523394 -4.53997,0.7268802 1.70249,43.6126128 -12.48493,3.634388 z"
       id="path14628"
       transform="matrix(0.45694198,0,0,0.4756663,43.661954,144.02471)" /><path
       style="fill:#ffffff;fill-opacity:1;stroke-width:0.188756"
       d="m -355.31502,14.854224 -11.63714,3.59786 -21.26789,-38.548473 -4.81537,-0.51398 8.29314,41.37536 -6.68802,2.69839 -29.56102,-104.337859 36.65031,20.687677 3.61153,12.720996 -1.47136,25.313496 z"
       id="path14630"
       transform="matrix(0.45694198,0,0,0.4756663,43.661954,144.02471)" /><path
       style="fill:#ffffff;fill-opacity:1;stroke-width:0.188756"
       d="m -340.06634,6.7590474 10.83458,-8.2236789 -11.23586,-14.5199235 26.48453,-5.910766 -7.75809,-8.095177 -33.97512,3.212376 -9.36322,-16.575844 -13.10851,-8.609162 14.04483,28.525872 -9.7645,3.726351 9.0957,11.4360435 12.43971,-3.8548465 z"
       id="path14632"
       transform="matrix(0.45694198,0,0,0.4756663,43.661954,144.02471)" /></g></svg>
