<?xml version="1.0" encoding="UTF-8" standalone="no"?>
<!-- Created with Inkscape (http://www.inkscape.org/) -->

<svg
   width="88.437401mm"
   height="183.19505mm"
   viewBox="0 0 88.437401 183.19505"
   version="1.1"
   id="svg5"
   xml:space="preserve"
   xmlns:inkscape="http://www.inkscape.org/namespaces/inkscape"
   xmlns:sodipodi="http://sodipodi.sourceforge.net/DTD/sodipodi-0.dtd"
   xmlns="http://www.w3.org/2000/svg"
   xmlns:svg="http://www.w3.org/2000/svg"><sodipodi:namedview
     id="namedview7"
     pagecolor="#ffffff"
     bordercolor="#000000"
     borderopacity="0.25"
     inkscape:showpageshadow="2"
     inkscape:pageopacity="0.0"
     inkscape:pagecheckerboard="0"
     inkscape:deskcolor="#d1d1d1"
     inkscape:document-units="mm"
     showgrid="false" /><defs
     id="defs2" /><g
     inkscape:label="Layer 1"
     inkscape:groupmode="layer"
     id="layer1"
     transform="translate(-51.81941,-52.563807)"><path
       style="fill:#ffffff;stroke-width:0.0879999"
       d="m 101.69397,206.04591 -0.84276,3.84648 -0.56185,1.64231 -2.355425,5.33753 -1.361395,2.52831 -1.988069,2.80922 -3.046928,3.21981 -1.707145,1.6207 -3.479117,2.52831 -3.090151,1.94485 -1.880018,0.97242 -1.96646,0.88599 -2.9821,1.05886 -3.263024,0.77794 -1.296567,0.21609 -1.426221,0.19449 -1.858412,0.10804 -1.534268,0.0216 -1.447832,-0.17287 -2.096116,-0.34575 -1.685534,-0.49702 -1.145302,-0.51863 -1.447831,-0.71311 -1.015643,-0.62667 -1.210128,-1.12369 -1.058862,-1.10208 -1.253347,-1.70715 -1.10208,-1.77197 -0.713113,-1.66393 -0.540234,-1.49105 -0.345752,-1.55588 -0.129656,-1.18852 -0.04322,-1.66392 0.06483,-1.70715 0.129656,-1.1453 0.259313,-1.18851 0.367361,-1.3614 0.302532,-1.36139 0.950815,-2.03129 0.75633,-1.70714 1.231736,-1.98807 1.555879,-2.11772 1.296567,-1.64232 1.404612,-1.40462 1.815193,-1.57748 1.577488,-1.33979 1.750364,-1.27496 1.901629,-1.33978 2.117725,-1.25335 1.901629,-1.08047 2.528303,-1.1453 2.355427,-0.9292 2.290601,-0.54024 1.361392,-0.30253 2.701179,-0.28092 2.160945,-0.0864 2.18255,0.0432 2.052897,0.19448 1.836801,0.38897 1.836801,0.60507 1.339786,0.58345 1.447832,0.58346 1.10208,0.64828 v -92.27559 l -0.134567,-49.018803 5.592544,0.06112 -0.0458,6.234311 0.0153,1.054331 0.0917,0.764008 0.12224,0.993211 0.16808,1.268256 0.27504,1.7725 0.30561,1.787781 0.3056,1.696099 0.36673,1.497457 0.6112,2.032262 0.62649,1.772501 0.68761,1.74194 0.88625,1.910022 1.02377,1.940581 1.25297,2.108666 1.25298,1.98642 1.23769,1.696101 1.22242,1.803061 1.29881,1.665539 1.26825,1.680819 1.84891,2.292024 2.32258,2.872674 1.63498,2.093383 1.78778,2.261465 1.68082,2.169791 1.55858,2.04754 1.31409,1.86418 1.49746,2.10866 1.51274,2.35315 1.11545,1.6961 1.48218,2.61291 0.94737,1.75722 1.35993,2.56707 1.0849,2.42955 0.87097,2.18506 0.65704,1.75722 0.50425,1.66554 0.33616,1.26826 0.44313,1.57385 0.33616,1.71138 0.47369,2.42955 0.2292,1.97114 0.16808,2.00171 0.16808,2.39898 0.0917,2.01699 -0.0306,2.24618 -0.12224,2.58235 -0.32088,2.75043 -0.27504,1.92531 -0.38201,2.18506 -0.45841,2.44483 -0.51952,2.29202 -0.85569,3.3158 -1.22241,4.44653 -1.3141,4.24789 -1.48218,4.35485 -1.55857,4.18677 -1.68082,3.94228 -0.71817,1.80306 -0.88625,1.78778 -0.77929,1.37522 -0.50424,0.82513 -0.47369,0.56536 -0.21583,0.23876 -0.16236,0.13179 -0.0917,0.0592 -0.20628,0.063 -0.1528,-0.0153 -0.0439,-0.0325 v -0.0439 l 0.0879,-0.25594 0.6093,-1.74194 0.88625,-2.65875 1.15365,-2.99491 1.13073,-3.23176 1.29118,-3.68252 1.71138,-5.01954 1.19949,-3.93464 1.13837,-4.19441 0.61885,-3.01784 0.38965,-2.63583 0.24448,-2.2309 0.0688,-2.10103 0.008,-2.97199 -0.22157,-3.34636 -0.29796,-2.76571 -0.51189,-3.01019 -0.59592,-2.76572 -0.75637,-2.94143 -0.93973,-3.06367 -0.94737,-2.69695 -1.51274,-3.72837 -0.84041,-1.71138 -1.16129,-2.12394 -1.5433,-2.46011 -1.51274,-1.97114 -1.13073,-1.25298 -1.20713,-1.13073 -1.29882,-1.17657 -1.17657,-0.97793 -1.29882,-0.94737 -1.37521,-0.94737 -1.4669,-1.10018 -2.09338,-1.32937 -2.04755,-1.2377 -2.88795,-1.55857 -2.81155,-1.25298 -2.07811,-0.74873 -1.10017,-0.36672 -1.02377,-0.2292 -0.67233,-0.0153 z"
       id="path409" /></g></svg>
